# xmcd
#
# Track frame offsets:
#	150
#	27941
#	47169
#	66694
#	84282
#	105462
#	133311
#	153347
#
# Disc length: 2297 seconds
#
# Revision: 0
# Processed by: cddbd v1.5.2PL0 Copyright (c) Steve Scherf et al.
# Submitted via: EasyCDDAExtractor 16.1.0.1
#
DISCID=6908f708
DTITLE=The Temptations - Power
DYEAR=2007
DGENRE=Soul
TTITLE0=Power
TTITLE1=Struck By Lightning Twice
TTITLE2=Isn't The Night Fantastic
TTITLE3=How Can I Resist Your Love
TTITLE4=Shadow Of Your Love
TTITLE5=Can't You See Sweet Thing
TTITLE6=Go For It
TTITLE7=I'm Coming Home
EXTD=
EXTT0=
EXTT1=
EXTT2=
EXTT3=
EXTT4=
EXTT5=
EXTT6=
EXTT7=
PLAYORDER=
